# xmcd CD database file
#
# Track frame offsets:
#	150
#	15962
#	33302
#	54120
#	74356
#	91203
#	107644
#	121356
#	137862
#	154227
#	170135
#	185841
#
# Disc length: 2688 seconds
#
# Revision: 0
# Processed by: cddbd v1.5.2PL0 Copyright (c) Steve Scherf et al.
# Submitted via: CDex 1.81
#
DISCID=9e0a7e0c
DTITLE=Darren Humes - Book Of Hearts
DYEAR=2016
DGENRE=Country
TTITLE0=Ride Through Hell
TTITLE1=Roll The Dice
TTITLE2=Flames Of Love
TTITLE3=Book Of Hearts
TTITLE4=Proud Warrior
TTITLE5=Boxing King
TTITLE6=Living In A Pothole
TTITLE7=Cactus Garden
TTITLE8=Christmas Time
TTITLE9=Notice Me
TTITLE10=Fortune Queen
TTITLE11=Travelling Home
EXTD=YEAR: 2016
EXTT0=
EXTT1=
EXTT2=
EXTT3=
EXTT4=
EXTT5=
EXTT6=
EXTT7=
EXTT8=
EXTT9=
EXTT10=
EXTT11=
PLAYORDER=
